<mxfile host="app.diagrams.net" agent="Mozilla/5.0 (Windows NT 10.0; Win64; x64) AppleWebKit/537.36 (KHTML, like Gecko) Chrome/123.0.0.0 Safari/537.36" version="26.0.5">
  <diagram name="第 1 页" id="hVpOFyjxzCuKH7gLe64-">
    <mxGraphModel dx="1434" dy="746" grid="1" gridSize="10" guides="1" tooltips="1" connect="1" arrows="1" fold="1" page="1" pageScale="1" pageWidth="827" pageHeight="1169" math="0" shadow="0">
      <root>
        <mxCell id="0" />
        <mxCell id="1" parent="0" />
        <mxCell id="VaqZUJU36XwP_ZQ6gxnt-1" value="" style="rounded=0;whiteSpace=wrap;html=1;fillColor=#fff2cc;strokeColor=#d6b656;" parent="1" vertex="1">
          <mxGeometry x="50" y="70" width="750" height="710" as="geometry" />
        </mxCell>
        <mxCell id="VaqZUJU36XwP_ZQ6gxnt-3" value="" style="rounded=0;whiteSpace=wrap;html=1;fillColor=#f5f5f5;fontColor=#333333;strokeColor=#666666;" parent="1" vertex="1">
          <mxGeometry x="100" y="120" width="650" height="90" as="geometry" />
        </mxCell>
        <mxCell id="VaqZUJU36XwP_ZQ6gxnt-4" value="&lt;font style=&quot;font-size: 15px;&quot;&gt;业务&lt;/font&gt;" style="text;html=1;align=center;verticalAlign=middle;whiteSpace=wrap;rounded=0;" parent="1" vertex="1">
          <mxGeometry x="100" y="80" width="60" height="30" as="geometry" />
        </mxCell>
        <mxCell id="VaqZUJU36XwP_ZQ6gxnt-5" value="库存业务" style="rounded=0;whiteSpace=wrap;html=1;fillColor=#d5e8d4;strokeColor=#82b366;" parent="1" vertex="1">
          <mxGeometry x="140" y="135" width="120" height="60" as="geometry" />
        </mxCell>
        <mxCell id="VaqZUJU36XwP_ZQ6gxnt-6" value="积分业务" style="rounded=0;whiteSpace=wrap;html=1;fillColor=#d5e8d4;strokeColor=#82b366;" parent="1" vertex="1">
          <mxGeometry x="340" y="135" width="120" height="60" as="geometry" />
        </mxCell>
        <mxCell id="VaqZUJU36XwP_ZQ6gxnt-8" value="" style="rounded=0;whiteSpace=wrap;html=1;fillColor=#f5f5f5;fontColor=#333333;strokeColor=#666666;" parent="1" vertex="1">
          <mxGeometry x="94.5" y="277.5" width="650" height="200" as="geometry" />
        </mxCell>
        <mxCell id="VaqZUJU36XwP_ZQ6gxnt-9" value="&lt;span style=&quot;font-size: 15px;&quot;&gt;聚合领域&lt;/span&gt;" style="text;html=1;align=center;verticalAlign=middle;whiteSpace=wrap;rounded=0;" parent="1" vertex="1">
          <mxGeometry x="94.5" y="230" width="90" height="30" as="geometry" />
        </mxCell>
        <mxCell id="VaqZUJU36XwP_ZQ6gxnt-10" value="" style="rounded=0;whiteSpace=wrap;html=1;fillColor=#f5f5f5;fontColor=#333333;strokeColor=#666666;" parent="1" vertex="1">
          <mxGeometry x="89" y="570" width="661" height="170" as="geometry" />
        </mxCell>
        <mxCell id="VaqZUJU36XwP_ZQ6gxnt-12" value="&lt;span style=&quot;font-size: 15px;&quot;&gt;领域&lt;/span&gt;" style="text;html=1;align=center;verticalAlign=middle;whiteSpace=wrap;rounded=0;" parent="1" vertex="1">
          <mxGeometry x="94" y="520" width="60" height="30" as="geometry" />
        </mxCell>
        <mxCell id="VaqZUJU36XwP_ZQ6gxnt-13" value="前端控制器" style="rounded=0;whiteSpace=wrap;html=1;fillColor=#d5e8d4;strokeColor=#82b366;" parent="1" vertex="1">
          <mxGeometry x="530" y="135" width="120" height="60" as="geometry" />
        </mxCell>
        <mxCell id="VaqZUJU36XwP_ZQ6gxnt-14" value="" style="rounded=0;whiteSpace=wrap;html=1;fillColor=#d5e8d4;strokeColor=#82b366;" parent="1" vertex="1">
          <mxGeometry x="120" y="310" width="260" height="120" as="geometry" />
        </mxCell>
        <mxCell id="VaqZUJU36XwP_ZQ6gxnt-17" value="库存" style="text;html=1;align=center;verticalAlign=middle;whiteSpace=wrap;rounded=0;" parent="1" vertex="1">
          <mxGeometry x="220" y="280" width="60" height="30" as="geometry" />
        </mxCell>
        <mxCell id="VaqZUJU36XwP_ZQ6gxnt-18" value="积分" style="text;html=1;align=center;verticalAlign=middle;whiteSpace=wrap;rounded=0;" parent="1" vertex="1">
          <mxGeometry x="570" y="280" width="60" height="30" as="geometry" />
        </mxCell>
        <mxCell id="VaqZUJU36XwP_ZQ6gxnt-23" value="" style="rounded=0;whiteSpace=wrap;html=1;fillColor=#ffe6cc;strokeColor=#d79b00;" parent="1" vertex="1">
          <mxGeometry x="140" y="610" width="210" height="100" as="geometry" />
        </mxCell>
        <mxCell id="VaqZUJU36XwP_ZQ6gxnt-24" value="物品领域" style="text;html=1;align=center;verticalAlign=middle;whiteSpace=wrap;rounded=0;" parent="1" vertex="1">
          <mxGeometry x="200" y="575" width="60" height="30" as="geometry" />
        </mxCell>
        <mxCell id="VaqZUJU36XwP_ZQ6gxnt-26" value="库存盘点" style="rounded=0;whiteSpace=wrap;html=1;fillColor=#e1d5e7;strokeColor=#9673a6;" parent="1" vertex="1">
          <mxGeometry x="140" y="320" width="80" height="28" as="geometry" />
        </mxCell>
        <mxCell id="VaqZUJU36XwP_ZQ6gxnt-27" value="" style="rounded=0;whiteSpace=wrap;html=1;fillColor=#d5e8d4;strokeColor=#82b366;" parent="1" vertex="1">
          <mxGeometry x="460" y="310" width="260" height="120" as="geometry" />
        </mxCell>
        <mxCell id="VaqZUJU36XwP_ZQ6gxnt-29" value="积分兑换商品" style="rounded=0;whiteSpace=wrap;html=1;fillColor=#e1d5e7;strokeColor=#9673a6;" parent="1" vertex="1">
          <mxGeometry x="490" y="322" width="80" height="30" as="geometry" />
        </mxCell>
        <mxCell id="VaqZUJU36XwP_ZQ6gxnt-31" value="签到增加积分" style="rounded=0;whiteSpace=wrap;html=1;fillColor=#e1d5e7;strokeColor=#9673a6;" parent="1" vertex="1">
          <mxGeometry x="610" y="322" width="80" height="30" as="geometry" />
        </mxCell>
        <mxCell id="VaqZUJU36XwP_ZQ6gxnt-32" value="入库管理" style="rounded=0;whiteSpace=wrap;html=1;fillColor=#e1d5e7;strokeColor=#9673a6;" parent="1" vertex="1">
          <mxGeometry x="140" y="372" width="80" height="28" as="geometry" />
        </mxCell>
        <mxCell id="VaqZUJU36XwP_ZQ6gxnt-33" value="出库管理" style="rounded=0;whiteSpace=wrap;html=1;fillColor=#e1d5e7;strokeColor=#9673a6;" parent="1" vertex="1">
          <mxGeometry x="260" y="322" width="80" height="28" as="geometry" />
        </mxCell>
        <mxCell id="VaqZUJU36XwP_ZQ6gxnt-35" value="分仓调配" style="rounded=0;whiteSpace=wrap;html=1;fillColor=#e1d5e7;strokeColor=#9673a6;" parent="1" vertex="1">
          <mxGeometry x="260" y="372" width="80" height="28" as="geometry" />
        </mxCell>
        <mxCell id="VaqZUJU36XwP_ZQ6gxnt-36" value="积分领域" style="text;html=1;align=center;verticalAlign=middle;whiteSpace=wrap;rounded=0;" parent="1" vertex="1">
          <mxGeometry x="540" y="575" width="60" height="30" as="geometry" />
        </mxCell>
        <mxCell id="VaqZUJU36XwP_ZQ6gxnt-42" value="物品登记" style="rounded=0;whiteSpace=wrap;html=1;fillColor=#dae8fc;strokeColor=#6c8ebf;" parent="1" vertex="1">
          <mxGeometry x="154" y="620" width="66" height="22.5" as="geometry" />
        </mxCell>
        <mxCell id="VaqZUJU36XwP_ZQ6gxnt-44" value="" style="rounded=0;whiteSpace=wrap;html=1;fillColor=#ffe6cc;strokeColor=#d79b00;" parent="1" vertex="1">
          <mxGeometry x="480" y="605" width="220" height="105" as="geometry" />
        </mxCell>
        <mxCell id="VaqZUJU36XwP_ZQ6gxnt-50" value="积分账户" style="rounded=0;whiteSpace=wrap;html=1;fillColor=#dae8fc;strokeColor=#6c8ebf;" parent="1" vertex="1">
          <mxGeometry x="497" y="615" width="66" height="22.5" as="geometry" />
        </mxCell>
        <mxCell id="VaqZUJU36XwP_ZQ6gxnt-51" value="积分订单" style="rounded=0;whiteSpace=wrap;html=1;fillColor=#dae8fc;strokeColor=#6c8ebf;" parent="1" vertex="1">
          <mxGeometry x="497" y="660" width="66" height="22.5" as="geometry" />
        </mxCell>
        <mxCell id="Qx8Rho8wtKY8n7EEVIae-4" value="积分配置" style="rounded=0;whiteSpace=wrap;html=1;fillColor=#dae8fc;strokeColor=#6c8ebf;" vertex="1" parent="1">
          <mxGeometry x="610" y="658.75" width="66" height="22.5" as="geometry" />
        </mxCell>
        <mxCell id="Qx8Rho8wtKY8n7EEVIae-5" value="积分商品" style="rounded=0;whiteSpace=wrap;html=1;fillColor=#dae8fc;strokeColor=#6c8ebf;" vertex="1" parent="1">
          <mxGeometry x="610" y="615" width="66" height="22.5" as="geometry" />
        </mxCell>
        <mxCell id="Qx8Rho8wtKY8n7EEVIae-6" value="用户积分查询" style="rounded=0;whiteSpace=wrap;html=1;fillColor=#e1d5e7;strokeColor=#9673a6;" vertex="1" parent="1">
          <mxGeometry x="490" y="372" width="80" height="30" as="geometry" />
        </mxCell>
        <mxCell id="Qx8Rho8wtKY8n7EEVIae-7" value="积分记录明细" style="rounded=0;whiteSpace=wrap;html=1;fillColor=#e1d5e7;strokeColor=#9673a6;" vertex="1" parent="1">
          <mxGeometry x="610" y="372" width="80" height="30" as="geometry" />
        </mxCell>
        <mxCell id="Qx8Rho8wtKY8n7EEVIae-8" value="物品库存" style="rounded=0;whiteSpace=wrap;html=1;fillColor=#dae8fc;strokeColor=#6c8ebf;" vertex="1" parent="1">
          <mxGeometry x="260" y="620" width="66" height="22.5" as="geometry" />
        </mxCell>
        <mxCell id="Qx8Rho8wtKY8n7EEVIae-9" value="物品调配" style="rounded=0;whiteSpace=wrap;html=1;fillColor=#dae8fc;strokeColor=#6c8ebf;" vertex="1" parent="1">
          <mxGeometry x="154" y="665" width="66" height="22.5" as="geometry" />
        </mxCell>
        <mxCell id="Qx8Rho8wtKY8n7EEVIae-10" value="物品出入库" style="rounded=0;whiteSpace=wrap;html=1;fillColor=#dae8fc;strokeColor=#6c8ebf;" vertex="1" parent="1">
          <mxGeometry x="260" y="665" width="66" height="22.5" as="geometry" />
        </mxCell>
      </root>
    </mxGraphModel>
  </diagram>
</mxfile>
